<svg width="20" height="20" viewBox="0 0 20 20" fill="none" xmlns="http://www.w3.org/2000/svg">
<g clip-path="url(#clip0_4016_399)">
<mask id="mask0_4016_399" style="mask-type:luminance" maskUnits="userSpaceOnUse" x="0" y="0" width="20" height="20">
<path d="M20 0H0V20H20V0Z" fill="white"/>
</mask>
<g mask="url(#mask0_4016_399)">
<mask id="mask1_4016_399" style="mask-type:luminance" maskUnits="userSpaceOnUse" x="0" y="0" width="20" height="20">
<path d="M0 1.90735e-06H20V20H0V1.90735e-06Z" fill="white"/>
</mask>
<g mask="url(#mask1_4016_399)">
<path d="M13.3203 15.3125V16.875C13.3203 18.1694 12.271 19.2188 10.9766 19.2188H3.125C1.83059 19.2188 0.78125 18.1694 0.78125 16.875V3.125C0.78125 1.83059 1.83059 0.781252 3.125 0.781252H10.9766C12.271 0.781252 13.3203 1.83059 13.3203 3.125V4.6875" stroke="#897CFF" stroke-width="2" stroke-miterlimit="10" stroke-linecap="round" stroke-linejoin="round"/>
<path d="M19.0234 10.0391H8.4375" stroke="#897CFF" stroke-width="2" stroke-miterlimit="10" stroke-linecap="round" stroke-linejoin="round"/>
<path d="M17.126 12.6172L18.8754 10.8677C19.3331 10.41 19.3331 9.66809 18.8754 9.21043L17.126 7.46094" stroke="#897CFF" stroke-width="2" stroke-miterlimit="10" stroke-linecap="round" stroke-linejoin="round"/>
</g>
</g>
</g>
<defs>
<clipPath id="clip0_4016_399">
<rect width="20" height="20" fill="white"/>
</clipPath>
</defs>
</svg>
