<svg width="141" height="20" viewBox="0 0 141 20" fill="none" xmlns="http://www.w3.org/2000/svg">
<g clip-path="url(#clip0_107_153)">
<path d="M12.6246 -0.0591249L18.6557 5.97202C18.6637 5.98006 18.6699 5.98959 18.6741 6.00006C18.6783 6.01053 18.6804 6.02174 18.6803 6.03302C18.6801 6.04431 18.6777 6.05545 18.6732 6.0658C18.6687 6.07616 18.6622 6.08551 18.6541 6.09333L16.5147 8.17694C16.4988 8.19266 16.4773 8.20147 16.4549 8.20147C16.4325 8.20147 16.411 8.19266 16.3951 8.17694L12.6426 4.42612C12.6347 4.41809 12.6252 4.41172 12.6148 4.40737C12.6044 4.40301 12.5932 4.40077 12.582 4.40077C12.5707 4.40077 12.5595 4.40301 12.5491 4.40737C12.5387 4.41172 12.5292 4.41809 12.5213 4.42612L8.75245 8.19497C8.74452 8.203 8.73507 8.20938 8.72466 8.21373C8.71425 8.21808 8.70308 8.22032 8.69179 8.22032C8.68051 8.22032 8.66933 8.21808 8.65892 8.21373C8.64851 8.20938 8.63907 8.203 8.63114 8.19497L6.48851 6.06874C6.48048 6.06081 6.47411 6.05137 6.46976 6.04096C6.46541 6.03055 6.46317 6.01937 6.46317 6.00809C6.46317 5.9968 6.46541 5.98563 6.46976 5.97522C6.47411 5.96481 6.48048 5.95536 6.48851 5.94743L12.5033 -0.0591249C12.5112 -0.0671545 12.5206 -0.0735295 12.5311 -0.0778807C12.5415 -0.082232 12.5526 -0.0844727 12.5639 -0.0844727C12.5752 -0.0844727 12.5864 -0.082232 12.5968 -0.0778807C12.6072 -0.0735295 12.6167 -0.0671545 12.6246 -0.0591249Z" fill="#9197C2"/>
<path d="M84.4951 9.83762C84.423 13.3179 88.2902 14.3524 90.4377 12.1065C90.45 12.0934 90.4648 12.083 90.4812 12.0758C90.4976 12.0686 90.5153 12.0649 90.5333 12.0647C90.5512 12.0646 90.569 12.068 90.5855 12.0749C90.602 12.0818 90.617 12.092 90.6295 12.1048L92.0164 13.5212C92.0536 13.5584 92.0547 13.5966 92.0197 13.636C89.1967 16.7917 83.7295 15.9163 82.3131 11.8852C81.0557 8.30811 83.2394 4.5491 87.1394 4.24582C88.9098 4.10811 90.6672 4.53598 91.9426 5.83106C91.9863 5.87478 91.988 5.92014 91.9476 5.96713L90.5525 7.60811C90.5131 7.65511 90.47 7.65839 90.423 7.61795C89.6836 6.96877 88.8574 6.50975 87.8803 6.44418C85.9099 6.31467 84.5361 7.90647 84.4951 9.83762Z" fill="#9197C2"/>
<path d="M64.4508 12.8688H59.8721C59.862 12.8687 59.8521 12.8716 59.8436 12.8771C59.8351 12.8827 59.8285 12.8906 59.8246 12.8999L58.8295 15.3049C58.8256 15.3142 58.819 15.3222 58.8105 15.3277C58.802 15.3333 58.7921 15.3361 58.782 15.336L56.4475 15.3229C56.4391 15.323 56.4308 15.321 56.4233 15.3171C56.4158 15.3132 56.4094 15.3075 56.4047 15.3005C56.4 15.2935 56.3971 15.2854 56.3963 15.277C56.3954 15.2687 56.3967 15.2602 56.4 15.2524L61.0754 4.33437C61.0792 4.32529 61.0856 4.31751 61.0937 4.31198C61.1019 4.30645 61.1115 4.30341 61.1213 4.30322H63.2738C63.2836 4.30341 63.2932 4.30645 63.3013 4.31198C63.3095 4.31751 63.3159 4.32529 63.3197 4.33437L68.0016 15.2721C68.0049 15.2799 68.0062 15.2883 68.0054 15.2967C68.0045 15.3051 68.0016 15.3132 67.9969 15.3202C67.9922 15.3272 67.9858 15.3329 67.9783 15.3368C67.9709 15.3407 67.9625 15.3427 67.9541 15.3426L65.541 15.3508C65.5308 15.3509 65.5209 15.348 65.5124 15.3425C65.504 15.3369 65.4974 15.329 65.4934 15.3196L64.4984 12.8999C64.4944 12.8906 64.4878 12.8827 64.4793 12.8771C64.4709 12.8716 64.4609 12.8687 64.4508 12.8688ZM60.7393 10.6672C60.7359 10.6756 60.7345 10.6847 60.7353 10.6938C60.7362 10.7028 60.7393 10.7116 60.7443 10.7192C60.7493 10.7268 60.7561 10.733 60.7641 10.7374C60.7721 10.7418 60.781 10.7441 60.7902 10.7442H63.5443C63.5534 10.7441 63.5623 10.7418 63.5703 10.7374C63.5783 10.733 63.5851 10.7268 63.5901 10.7192C63.5951 10.7116 63.5982 10.7028 63.5991 10.6938C63.5999 10.6847 63.5986 10.6756 63.5951 10.6672L62.218 7.30978C62.2136 7.29999 62.2065 7.29169 62.1975 7.28586C62.1884 7.28003 62.1779 7.27693 62.1672 7.27693C62.1565 7.27693 62.146 7.28003 62.1369 7.28586C62.1279 7.29169 62.1208 7.29999 62.1164 7.30978L60.7393 10.6672Z" fill="#9197C2"/>
<path d="M125.903 12.6639H120.826C120.815 12.664 120.805 12.6673 120.796 12.6735C120.787 12.6796 120.78 12.6882 120.775 12.6983L119.67 15.2934C119.666 15.3035 119.659 15.3121 119.65 15.3182C119.641 15.3243 119.631 15.3277 119.62 15.3278H117.79C117.781 15.3278 117.772 15.3255 117.763 15.321C117.755 15.3166 117.748 15.3101 117.743 15.3023C117.738 15.2945 117.735 15.2855 117.735 15.2762C117.734 15.2669 117.736 15.2576 117.739 15.2491L122.493 4.33601C122.498 4.32623 122.505 4.31794 122.514 4.31212C122.523 4.30631 122.534 4.30322 122.544 4.30322H124.228C124.239 4.30322 124.249 4.30631 124.258 4.31212C124.267 4.31794 124.274 4.32623 124.279 4.33601L129.028 15.2491C129.032 15.2576 129.033 15.2669 129.033 15.2762C129.032 15.2855 129.029 15.2945 129.024 15.3023C129.019 15.3101 129.012 15.3166 129.004 15.321C128.996 15.3255 128.986 15.3278 128.977 15.3278H127.089C127.077 15.328 127.066 15.3248 127.057 15.3187C127.048 15.3125 127.04 15.3037 127.036 15.2934L125.956 12.6983C125.951 12.688 125.944 12.6791 125.935 12.673C125.925 12.6669 125.914 12.6637 125.903 12.6639ZM121.533 10.8688C121.529 10.8768 121.528 10.8855 121.528 10.8941C121.529 10.9028 121.532 10.9112 121.537 10.9185C121.541 10.9258 121.548 10.9319 121.555 10.9361C121.563 10.9403 121.572 10.9425 121.58 10.9426H125.138C125.146 10.9425 125.155 10.9403 125.163 10.9361C125.17 10.9319 125.177 10.9258 125.181 10.9185C125.186 10.9112 125.189 10.9028 125.19 10.8941C125.19 10.8855 125.189 10.8768 125.185 10.8688L123.407 6.71798C123.402 6.70893 123.396 6.70127 123.387 6.69591C123.379 6.69054 123.369 6.68769 123.359 6.68769C123.349 6.68769 123.339 6.69054 123.331 6.69591C123.322 6.70127 123.316 6.70893 123.311 6.71798L121.533 10.8688Z" fill="#9197C2"/>
<path d="M96.4984 13.1967H102.354C102.371 13.1967 102.387 13.2035 102.399 13.2155C102.411 13.2274 102.418 13.2437 102.418 13.2607V15.2639C102.418 15.2809 102.411 15.2972 102.399 15.3092C102.387 15.3211 102.371 15.3279 102.354 15.3279H94.1213C94.1044 15.3279 94.0881 15.3211 94.0761 15.3092C94.0641 15.2972 94.0574 15.2809 94.0574 15.2639V4.44919C94.0574 4.43223 94.0641 4.41597 94.0761 4.40398C94.0881 4.39199 94.1044 4.38525 94.1213 4.38525H102.272C102.289 4.38525 102.305 4.39199 102.317 4.40398C102.329 4.41597 102.336 4.43223 102.336 4.44919V6.45247C102.336 6.46942 102.329 6.48569 102.317 6.49768C102.305 6.50967 102.289 6.5164 102.272 6.5164H96.4918C96.4748 6.5164 96.4586 6.52314 96.4466 6.53513C96.4346 6.54712 96.4279 6.56338 96.4279 6.58034L96.4492 8.66558C96.4492 8.68254 96.4559 8.6988 96.4679 8.71079C96.4799 8.72278 96.4962 8.72952 96.5131 8.72952H101.575C101.592 8.72952 101.609 8.73625 101.621 8.74824C101.633 8.76023 101.639 8.77649 101.639 8.79345V10.8148C101.639 10.8317 101.633 10.848 101.621 10.86C101.609 10.872 101.592 10.8787 101.575 10.8787L96.4984 10.9049C96.4814 10.9049 96.4651 10.9117 96.4532 10.9237C96.4412 10.9356 96.4344 10.9519 96.4344 10.9689V13.1328C96.4344 13.1498 96.4412 13.166 96.4532 13.178C96.4651 13.19 96.4814 13.1967 96.4984 13.1967Z" fill="#9197C2"/>
<path d="M34.5393 9.70154C35.7131 10.0524 36.4098 10.9179 36.4983 12.1474C36.6721 14.5999 34.3524 15.3278 32.2803 15.3245C30.594 15.3212 28.9115 15.3283 27.2328 15.3458C27.2249 15.346 27.217 15.3447 27.2097 15.3418C27.2023 15.3389 27.1956 15.3346 27.19 15.3291C27.1843 15.3236 27.1798 15.317 27.1768 15.3098C27.1737 15.3025 27.1721 15.2947 27.1721 15.2868V4.46876C27.1721 4.4163 27.1983 4.39007 27.2508 4.39007C28.9098 4.38133 30.5634 4.37695 32.2115 4.37695C33.2902 4.37695 34.5721 4.68023 35.2672 5.53433C36.3377 6.85072 35.9869 8.65564 34.5197 9.55892C34.5067 9.56693 34.4963 9.57854 34.4898 9.59234C34.4833 9.60614 34.4809 9.62153 34.483 9.63664C34.4851 9.65175 34.4915 9.66593 34.5015 9.67746C34.5115 9.68898 34.5247 9.69735 34.5393 9.70154ZM29.5082 6.59335V8.73433C29.5082 8.75477 29.5163 8.77436 29.5308 8.78881C29.5452 8.80326 29.5648 8.81138 29.5852 8.81138H32.0262C32.4132 8.81138 32.7843 8.69825 33.0579 8.49688C33.3315 8.29551 33.4852 8.02239 33.4852 7.73761V7.59007C33.4852 7.30529 33.3315 7.03217 33.0579 6.8308C32.7843 6.62943 32.4132 6.5163 32.0262 6.5163H29.5852C29.5648 6.5163 29.5452 6.52442 29.5308 6.53886C29.5163 6.55331 29.5082 6.57291 29.5082 6.59335ZM29.4983 10.9458L29.5098 13.1458C29.5098 13.1649 29.5174 13.1833 29.531 13.1968C29.5445 13.2103 29.5628 13.2179 29.582 13.2179L32.7164 13.2015C33.0848 13.1995 33.4374 13.0807 33.6969 12.8714C33.9563 12.6621 34.1013 12.3793 34.1 12.0852V11.9606C34.0993 11.8147 34.0627 11.6704 33.9921 11.536C33.9216 11.4016 33.8185 11.2797 33.6888 11.1772C33.5591 11.0748 33.4052 10.9938 33.2361 10.9389C33.067 10.884 32.886 10.8562 32.7033 10.8573L29.5688 10.8737C29.55 10.8741 29.5321 10.8819 29.5189 10.8954C29.5057 10.9089 29.4983 10.927 29.4983 10.9458Z" fill="#9197C2"/>
<path d="M41.5262 4.38525H39.2508C39.2119 4.38525 39.1803 4.41681 39.1803 4.45575V15.2557C39.1803 15.2947 39.2119 15.3262 39.2508 15.3262H41.5262C41.5652 15.3262 41.5967 15.2947 41.5967 15.2557V4.45575C41.5967 4.41681 41.5652 4.38525 41.5262 4.38525Z" fill="#9197C2"/>
<path d="M47.2066 8.52788L47.2164 15.2754C47.2164 15.2893 47.2109 15.3027 47.201 15.3125C47.1912 15.3224 47.1778 15.3279 47.1639 15.3279L44.8885 15.3459C44.8746 15.3459 44.8613 15.3404 44.8514 15.3305C44.8416 15.3207 44.8361 15.3074 44.8361 15.2935V4.43771C44.8361 4.4238 44.8416 4.41046 44.8514 4.40062C44.8613 4.39078 44.8746 4.38526 44.8885 4.38526H47.0279C47.0361 4.38519 47.0443 4.38709 47.0517 4.39079C47.0591 4.3945 47.0656 4.3999 47.0705 4.40657L52.1246 10.9935C52.1314 11.0019 52.1406 11.0081 52.1511 11.0111C52.1615 11.0141 52.1727 11.0138 52.1829 11.0102C52.1932 11.0066 52.2021 10.9999 52.2084 10.991C52.2147 10.9822 52.218 10.9715 52.218 10.9607L52.2492 4.43771C52.2492 4.4238 52.2547 4.41046 52.2645 4.40062C52.2744 4.39078 52.2877 4.38526 52.3016 4.38526H54.5361C54.55 4.38526 54.5633 4.39078 54.5732 4.40062C54.583 4.41046 54.5885 4.4238 54.5885 4.43771L54.5918 15.3164C54.5918 15.3303 54.5863 15.3437 54.5764 15.3535C54.5666 15.3633 54.5533 15.3689 54.5393 15.3689H52.5803C52.572 15.3689 52.5639 15.367 52.5565 15.3633C52.549 15.3596 52.5426 15.3542 52.5377 15.3476L47.3016 8.49509C47.2951 8.48589 47.2857 8.47907 47.2749 8.47563C47.2641 8.47219 47.2525 8.47232 47.2419 8.47601C47.2312 8.4797 47.222 8.48674 47.2156 8.49608C47.2092 8.50543 47.2061 8.51658 47.2066 8.52788Z" fill="#9197C2"/>
<path d="M72.1688 8.53607L72.1738 15.2672C72.1738 15.2816 72.1681 15.2953 72.1579 15.3055C72.1478 15.3156 72.134 15.3213 72.1197 15.3213L69.8492 15.3557C69.8348 15.3557 69.8211 15.35 69.8109 15.3399C69.8008 15.3298 69.7951 15.316 69.7951 15.3016V4.43935C69.7951 4.425 69.8008 4.41124 69.8109 4.4011C69.8211 4.39095 69.8348 4.38525 69.8492 4.38525H71.9852C71.9935 4.38532 72.0016 4.38727 72.009 4.39096C72.0164 4.39466 72.0229 4.39999 72.0279 4.40656L77.082 10.9918C77.0889 11.0007 77.0984 11.0071 77.1091 11.0103C77.1199 11.0135 77.1313 11.0133 77.142 11.0097C77.1526 11.0061 77.1618 10.9993 77.1684 10.9902C77.175 10.9811 77.1786 10.9702 77.1787 10.959L77.1688 4.43935C77.1688 4.425 77.1745 4.41124 77.1847 4.4011C77.1948 4.39095 77.2086 4.38525 77.2229 4.38525H79.5262C79.5406 4.38525 79.5543 4.39095 79.5645 4.4011C79.5746 4.41124 79.5803 4.425 79.5803 4.43935L79.5361 15.3148C79.5361 15.3219 79.5347 15.3289 79.5319 15.3355C79.5292 15.342 79.5252 15.348 79.5202 15.353C79.5152 15.358 79.5092 15.362 79.5027 15.3647C79.4961 15.3675 79.4891 15.3689 79.482 15.3689H77.541C77.5327 15.3688 77.5246 15.3668 77.5172 15.3632C77.5098 15.3595 77.5034 15.3541 77.4984 15.3475L72.2656 8.50329C72.2587 8.49445 72.2492 8.48798 72.2384 8.48476C72.2277 8.48155 72.2162 8.48176 72.2056 8.48536C72.1949 8.48897 72.1857 8.49578 72.1791 8.50487C72.1725 8.51395 72.169 8.52486 72.1688 8.53607Z" fill="#9197C2"/>
<path d="M111.23 11.8854V15.246C111.23 15.3007 111.202 15.328 111.148 15.328H109.426C109.372 15.328 109.344 15.3007 109.344 15.246V4.47062C109.344 4.41816 109.37 4.39193 109.423 4.39193C111.652 4.37772 113.06 4.37608 113.646 4.38701C115.425 4.4198 117.084 5.15586 117.589 6.94275C118.266 9.34767 116.874 11.2264 114.467 11.6739C113.492 11.8542 112.346 11.7493 111.32 11.7903C111.26 11.7936 111.23 11.8253 111.23 11.8854ZM111.236 6.18373V9.99357C111.236 10.0057 111.241 10.0174 111.25 10.026C111.258 10.0346 111.27 10.0395 111.282 10.0395H113.69C114.254 10.0395 114.795 9.83946 115.194 9.48345C115.592 9.12744 115.816 8.64459 115.816 8.14111V8.03619C115.816 7.53271 115.592 7.04986 115.194 6.69385C114.795 6.33784 114.254 6.13783 113.69 6.13783H111.282C111.27 6.13783 111.258 6.14267 111.25 6.15127C111.241 6.15988 111.236 6.17156 111.236 6.18373Z" fill="#9197C2"/>
<path d="M133.449 9.18034L136.484 4.4082C136.488 4.40114 136.495 4.39534 136.502 4.39133C136.509 4.38732 136.518 4.38523 136.526 4.38525H138.587C138.596 4.38523 138.605 4.38769 138.613 4.39238C138.621 4.39707 138.627 4.4038 138.632 4.41187C138.636 4.41994 138.638 4.42904 138.638 4.43821C138.637 4.44738 138.635 4.45627 138.63 4.46394L134.352 10.9459C134.347 10.9542 134.344 10.9639 134.344 10.9738V15.2771C134.344 15.2905 134.339 15.3035 134.329 15.313C134.32 15.3225 134.307 15.3279 134.293 15.3279H132.469C132.455 15.3279 132.442 15.3225 132.433 15.313C132.423 15.3035 132.418 15.2905 132.418 15.2771V10.982C132.418 10.9721 132.415 10.9624 132.41 10.9541L128.159 4.46394C128.154 4.45627 128.151 4.44738 128.151 4.43821C128.15 4.42904 128.152 4.41994 128.157 4.41187C128.161 4.4038 128.168 4.39707 128.176 4.39238C128.183 4.38769 128.192 4.38523 128.202 4.38525H130.328C130.336 4.38541 130.345 4.38775 130.352 4.39205C130.36 4.39635 130.366 4.40247 130.37 4.40984L133.364 9.1787C133.368 9.18589 133.375 9.19185 133.382 9.19604C133.389 9.20023 133.398 9.20251 133.406 9.20267C133.415 9.20283 133.423 9.20087 133.43 9.19697C133.438 9.19307 133.444 9.18735 133.449 9.18034Z" fill="#9197C2"/>
<path d="M4.76088 7.67901L2.61173 9.82815C2.58357 9.85631 2.58357 9.90199 2.61173 9.93015L4.74697 12.0654C4.77513 12.0936 4.8208 12.0936 4.84897 12.0654L6.99811 9.91624C7.02628 9.88808 7.02628 9.8424 6.99812 9.81424L4.86288 7.679C4.83472 7.65084 4.78904 7.65084 4.76088 7.67901Z" fill="#9197C2"/>
<path d="M14.7728 9.83229L12.6283 7.68779C12.6034 7.66282 12.5629 7.66282 12.5379 7.68779L10.3911 9.83461C10.3661 9.85958 10.3661 9.90006 10.3911 9.92503L12.5356 12.0695C12.5606 12.0945 12.6011 12.0945 12.626 12.0695L14.7728 9.92271C14.7978 9.89774 14.7978 9.85726 14.7728 9.83229Z" fill="#9197C2"/>
<path d="M22.5581 9.82885L20.3913 7.66958C20.3656 7.64401 20.3241 7.64409 20.2986 7.66974L18.1532 9.82263C18.1276 9.84828 18.1277 9.8898 18.1533 9.91536L20.3202 12.0746C20.3458 12.1002 20.3873 12.1001 20.4129 12.0745L22.5583 9.92159C22.5838 9.89593 22.5838 9.85441 22.5581 9.82885Z" fill="#9197C2"/>
<path d="M6.46722 13.7098L8.6623 11.5245C8.66719 11.5195 8.67305 11.5155 8.67953 11.5127C8.68601 11.51 8.69297 11.5085 8.70001 11.5085C8.70704 11.5085 8.71401 11.51 8.72048 11.5127C8.72696 11.5155 8.73282 11.5195 8.73771 11.5245L12.5475 15.3098C12.5525 15.3147 12.5585 15.3186 12.565 15.3212C12.5716 15.3238 12.5786 15.3251 12.5856 15.3249C12.5926 15.3248 12.5996 15.3232 12.606 15.3203C12.6124 15.3175 12.6182 15.3133 12.623 15.3081L16.418 11.5131C16.4229 11.508 16.4288 11.504 16.4353 11.5012C16.4417 11.4985 16.4487 11.4971 16.4557 11.4971C16.4628 11.4971 16.4697 11.4985 16.4762 11.5012C16.4827 11.504 16.4886 11.508 16.4934 11.5131L18.6738 13.695C18.6788 13.6999 18.6829 13.7058 18.6856 13.7123C18.6883 13.7187 18.6898 13.7257 18.6898 13.7327C18.6898 13.7398 18.6883 13.7467 18.6856 13.7532C18.6829 13.7597 18.6788 13.7655 18.6738 13.7704L12.5967 19.7852C12.5918 19.7902 12.586 19.7943 12.5795 19.797C12.573 19.7998 12.5661 19.8012 12.559 19.8012C12.552 19.8012 12.545 19.7998 12.5385 19.797C12.5321 19.7943 12.5262 19.7902 12.5213 19.7852L6.46722 13.7852C6.46216 13.7803 6.45814 13.7744 6.45539 13.768C6.45265 13.7615 6.45123 13.7545 6.45123 13.7475C6.45123 13.7404 6.45265 13.7335 6.45539 13.727C6.45814 13.7205 6.46216 13.7147 6.46722 13.7098Z" fill="#9197C2"/>
</g>
<defs>
<clipPath id="clip0_107_153">
<rect width="140.984" height="20" fill="white"/>
</clipPath>
</defs>
</svg>
