<svg width="130" height="20" viewBox="0 0 130 20" fill="none" xmlns="http://www.w3.org/2000/svg">
<g clip-path="url(#clip0_110_206)">
<path d="M62.2019 6.43559C63.6985 4.7606 66.2328 4.76165 67.9202 6.12685C71.1398 8.73227 69.7732 14.4839 65.4614 14.8504C64.1786 14.959 63.0735 14.5123 62.1464 13.5105C62.1428 13.5069 62.1383 13.5045 62.1335 13.5035C62.1286 13.5026 62.1235 13.503 62.1189 13.505C62.1143 13.5069 62.1104 13.5101 62.1076 13.5143C62.1048 13.5184 62.1034 13.5233 62.1034 13.5283L62.1139 14.6236C62.1146 14.66 62.0967 14.6782 62.0604 14.6782H60.0408C59.9884 14.6782 59.9622 14.652 59.9622 14.5995V1.39382C59.9622 1.37989 59.9677 1.36654 59.9775 1.35669C59.9874 1.34684 60.0007 1.34131 60.0146 1.34131H62.0845C62.1195 1.34131 62.1369 1.35881 62.1369 1.39382V6.41144C62.1369 6.41887 62.1391 6.4261 62.1433 6.43218C62.1475 6.43826 62.1535 6.44291 62.1605 6.44552C62.1676 6.44813 62.1753 6.44858 62.1827 6.4468C62.19 6.44503 62.1967 6.44112 62.2019 6.43559ZM64.6761 12.865C65.0316 12.8774 65.3863 12.8156 65.7198 12.683C66.0534 12.5505 66.3592 12.3498 66.6199 12.0925C66.8806 11.8351 67.0911 11.5261 67.2392 11.1831C67.3874 10.8402 67.4705 10.4699 67.4836 10.0935C67.4967 9.7171 67.4397 9.34193 67.3157 8.98943C67.1918 8.63692 67.0033 8.31397 66.7612 8.03902C66.519 7.76407 66.2279 7.5425 65.9044 7.38696C65.5809 7.23143 65.2314 7.14497 64.8759 7.13253C64.5203 7.12009 64.1656 7.18191 63.8321 7.31445C63.4986 7.447 63.1927 7.64768 62.932 7.90503C62.6713 8.16239 62.4609 8.47138 62.3127 8.81436C62.1645 9.15735 62.0815 9.52761 62.0683 9.90401C62.0552 10.2804 62.1123 10.6556 62.2362 11.0081C62.3602 11.3606 62.5486 11.6835 62.7908 11.9585C63.0329 12.2334 63.324 12.455 63.6475 12.6105C63.971 12.7661 64.3205 12.8525 64.6761 12.865Z" fill="#9197C2"/>
<path d="M46.8791 4.22504C47.6461 4.22504 48.2678 3.60206 48.2678 2.83359C48.2678 2.06511 47.6461 1.44214 46.8791 1.44214C46.1122 1.44214 45.4904 2.06511 45.4904 2.83359C45.4904 3.60206 46.1122 4.22504 46.8791 4.22504Z" fill="#9197C2"/>
<path d="M27.6868 14.7917C21.8533 13.6838 22.7358 4.9486 28.7926 5.14183C31.0333 5.21429 32.748 6.59209 33.2636 8.83311C33.2748 8.87932 33.2566 8.90242 33.2091 8.90242H31.0375C30.9977 8.90242 30.9705 8.88387 30.9558 8.84676C30.3867 7.39125 28.9445 6.78427 27.5244 7.3608C25.423 8.21562 25.4104 11.5646 27.3923 12.5779C28.7873 13.291 30.4317 12.6095 30.9516 11.1403C30.9656 11.1011 30.9935 11.0815 31.0354 11.0815H33.1075C33.1318 11.0816 33.1557 11.0874 33.1773 11.0983C33.199 11.1093 33.2178 11.1252 33.2322 11.1447C33.2465 11.1642 33.2561 11.1868 33.2601 11.2107C33.2641 11.2345 33.2625 11.259 33.2552 11.2821C32.4776 13.7888 30.2882 15.2863 27.6868 14.7917Z" fill="#9197C2"/>
<path d="M38.8844 5.13539C41.754 5.07658 43.9728 7.35541 43.8198 10.2811C43.671 13.1428 41.1671 15.1927 38.3038 14.8293C32.3424 14.0732 32.8056 5.26036 38.8844 5.13539ZM39.002 12.8639C39.7209 12.8488 40.4041 12.5324 40.9012 11.9844C41.3984 11.4364 41.6687 10.7016 41.6528 9.94174C41.6369 9.18183 41.3361 8.45905 40.8165 7.93238C40.2969 7.40572 39.6011 7.11832 38.8822 7.13341C38.1632 7.1485 37.4801 7.46484 36.9829 8.01285C36.4858 8.56085 36.2154 9.29563 36.2313 10.0555C36.2472 10.8154 36.548 11.5382 37.0676 12.0649C37.5872 12.5916 38.283 12.879 39.002 12.8639Z" fill="#9197C2"/>
<path d="M51.9434 6.45238C53.3834 4.56946 56.7509 4.67762 57.8587 6.86403C58.2032 7.54383 58.3747 8.31079 58.3733 9.16492C58.3698 10.988 58.3653 12.8086 58.3597 14.6268C58.3597 14.6404 58.3543 14.6535 58.3446 14.6631C58.335 14.6728 58.3219 14.6782 58.3083 14.6782H56.2426C56.2069 14.6782 56.1891 14.6604 56.1891 14.6246C56.1891 13.0893 56.1888 11.5547 56.1881 10.0208C56.1881 9.29618 56.1486 8.80086 56.0696 8.53482C55.4827 6.54794 52.7273 6.78947 52.0807 8.60623C51.978 8.89328 51.9252 9.33854 51.9224 9.94203C51.9154 11.4983 51.9147 13.0508 51.9203 14.5994C51.9205 14.6095 51.9186 14.6194 51.9148 14.6287C51.911 14.638 51.9054 14.6465 51.8983 14.6536C51.8912 14.6607 51.8827 14.6664 51.8733 14.6702C51.864 14.6741 51.854 14.6761 51.8438 14.6761L49.7645 14.6814C49.7586 14.6814 49.753 14.679 49.7489 14.6749C49.7448 14.6708 49.7424 14.6652 49.7424 14.6593L49.7435 5.35812C49.7435 5.34419 49.749 5.33084 49.7588 5.32099C49.7687 5.31114 49.782 5.30561 49.7959 5.30561H51.826C51.8435 5.30561 51.8603 5.31258 51.8727 5.32499C51.8851 5.3374 51.892 5.35422 51.892 5.37177V6.43452C51.892 6.49123 51.9092 6.49718 51.9434 6.45238Z" fill="#9197C2"/>
<path d="M76.7963 13.2564C76.0909 14.6468 74.4832 15.0196 73.0578 14.7801C71.3306 14.4892 70.2857 13.207 70.6724 11.3682C71.0612 9.51993 73.4781 9.23849 74.9758 9.05997C75.4076 9.00851 76.0689 8.83103 76.355 8.53174C76.6894 8.18204 76.5458 7.574 76.1664 7.28731C75.6235 6.8788 74.6257 6.8851 74.0252 7.08043C73.4627 7.26386 73.1186 7.65347 72.9928 8.24925C72.9858 8.28216 72.9656 8.29861 72.932 8.29861H70.8873C70.8488 8.29861 70.8328 8.27971 70.839 8.2419C71.1018 6.65617 71.9996 5.67533 73.5326 5.29938C75.3866 4.84466 77.9691 5.21012 78.6073 7.35557C78.7135 7.71262 78.7687 8.40362 78.7729 9.42857C78.7778 10.5144 78.7778 11.6027 78.7729 12.6935C78.7729 12.7264 78.7894 12.7428 78.8222 12.7428L79.7812 12.7376C79.7992 12.7376 79.8166 12.7448 79.8294 12.7576C79.8421 12.7704 79.8493 12.7878 79.8493 12.8059V14.6205C79.8493 14.652 79.8336 14.6685 79.8021 14.6699C78.5287 14.7087 77.1736 14.8505 76.8654 13.2669C76.8642 13.2592 76.8606 13.252 76.8551 13.2465C76.8496 13.241 76.8424 13.2374 76.8347 13.2362C76.827 13.2351 76.8191 13.2364 76.8122 13.24C76.8053 13.2436 76.7997 13.2494 76.7963 13.2564ZM72.8608 11.5005C72.4877 12.0991 72.8954 12.7954 73.5682 12.9634C74.6792 13.2406 76.0039 12.7891 76.4724 11.6727C76.6684 11.2054 76.6401 10.611 76.6328 10.0839C76.6325 10.0774 76.6304 10.0712 76.6267 10.0659C76.623 10.0606 76.6179 10.0565 76.6119 10.054C76.6059 10.0516 76.5994 10.0509 76.5931 10.0521C76.5867 10.0533 76.5809 10.0563 76.5762 10.0608C75.5763 11.0332 73.563 10.3758 72.8608 11.5005Z" fill="#9197C2"/>
<path d="M85.5309 11.0751C83.6444 10.758 80.8072 10.7223 80.7433 8.08747C80.7108 6.76113 81.5776 5.78659 82.8279 5.40118C85.0708 4.70913 88.041 5.28357 88.4477 8.04756C88.454 8.09237 88.4344 8.11477 88.389 8.11477H86.4249C86.383 8.11477 86.3561 8.09447 86.3442 8.05386C86.0203 6.9365 84.7061 6.79788 83.7534 7.01526C83.3876 7.09823 83.0407 7.2568 82.8971 7.62225C82.5732 8.44557 83.4505 8.75431 84.1212 8.85933C85.9596 9.14812 88.6845 9.28884 88.6552 11.889C88.6374 13.4548 87.582 14.3852 86.1398 14.7097C83.8414 15.2274 80.8806 14.5921 80.4813 11.7955C80.4802 11.7884 80.4807 11.7812 80.4827 11.7742C80.4847 11.7673 80.4881 11.7609 80.4928 11.7554C80.4975 11.75 80.5033 11.7456 80.5098 11.7425C80.5163 11.7395 80.5234 11.7379 80.5305 11.7378H82.5481C82.5652 11.7378 82.5818 11.7438 82.5952 11.7549C82.6086 11.766 82.6178 11.7814 82.6214 11.7987C82.9044 13.1681 84.7773 13.2343 85.8338 12.9045C86.5873 12.6693 86.819 11.7546 86.1304 11.2747C86.0067 11.1886 85.8069 11.1221 85.5309 11.0751Z" fill="#9197C2"/>
<path d="M91.855 10.5857C92.0017 11.5631 92.4751 12.2478 93.2751 12.6398C94.4343 13.2101 96.1248 12.9612 96.6834 11.6485C96.6893 11.6348 96.6992 11.6232 96.7119 11.6149C96.7246 11.6067 96.7394 11.6023 96.7547 11.6023L98.9137 11.6159C98.9206 11.616 98.9273 11.6177 98.9334 11.6208C98.9395 11.6239 98.9449 11.6283 98.949 11.6338C98.9532 11.6393 98.956 11.6456 98.9573 11.6523C98.9587 11.6591 98.9584 11.666 98.9567 11.6727C98.3509 13.8496 96.239 15.0384 94.057 14.8441C91.2785 14.5973 89.3459 12.3416 89.6268 9.51669C90.1623 4.11157 98.0281 3.44682 98.9714 8.96431C99.0279 9.29336 99.044 9.80058 99.0196 10.486C99.0189 10.5154 99.0038 10.5301 98.9745 10.5301H91.9032C91.8654 10.5301 91.8494 10.5486 91.855 10.5857ZM96.7715 8.92336C96.2736 6.38409 92.5509 6.4324 91.987 8.92336C91.9779 8.96186 91.9933 8.98111 92.0331 8.98111H96.7243C96.7634 8.98111 96.7791 8.96186 96.7715 8.92336Z" fill="#9197C2"/>
<path d="M44.4245 7.18648V5.36762C44.4245 5.35119 44.431 5.33543 44.4426 5.32381C44.4542 5.31219 44.47 5.30566 44.4864 5.30566H47.8999C47.9163 5.30566 47.9321 5.31219 47.9437 5.32381C47.9553 5.33543 47.9618 5.35119 47.9618 5.36762V14.6163C47.9618 14.6327 47.9553 14.6485 47.9437 14.6601C47.9321 14.6717 47.9163 14.6783 47.8999 14.6783H45.8489C45.8325 14.6783 45.8167 14.6717 45.8051 14.6601C45.7935 14.6485 45.787 14.6327 45.787 14.6163V7.3104C45.787 7.29397 45.7805 7.27821 45.7689 7.26659C45.7573 7.25497 45.7416 7.24844 45.7252 7.24844H44.4864C44.47 7.24844 44.4542 7.24192 44.4426 7.2303C44.431 7.21868 44.4245 7.20292 44.4245 7.18648Z" fill="#9197C2"/>
<path d="M118.707 12.2079H114.508C114.499 12.208 114.49 12.2108 114.483 12.2159C114.475 12.221 114.469 12.2281 114.466 12.2365L113.552 14.3975C113.549 14.4059 113.543 14.4131 113.535 14.4182C113.528 14.4233 113.519 14.4261 113.51 14.4262H111.997C111.989 14.4262 111.982 14.4242 111.975 14.4205C111.968 14.4168 111.962 14.4115 111.958 14.4049C111.954 14.3984 111.952 14.391 111.951 14.3832C111.95 14.3755 111.952 14.3677 111.955 14.3606L115.887 5.27315C115.89 5.26501 115.896 5.2581 115.904 5.25326C115.911 5.24842 115.92 5.24585 115.929 5.24585H117.321C117.33 5.24585 117.339 5.24842 117.346 5.25326C117.354 5.2581 117.36 5.26501 117.363 5.27315L121.291 14.3606C121.294 14.3677 121.296 14.3755 121.295 14.3832C121.294 14.391 121.292 14.3984 121.288 14.4049C121.284 14.4115 121.278 14.4168 121.271 14.4205C121.264 14.4242 121.257 14.4262 121.249 14.4262H119.687C119.678 14.4263 119.669 14.4237 119.661 14.4186C119.653 14.4135 119.647 14.4061 119.644 14.3975L118.75 12.2365C118.747 12.2279 118.741 12.2206 118.733 12.2155C118.725 12.2104 118.716 12.2077 118.707 12.2079ZM115.092 10.7131C115.089 10.7197 115.088 10.727 115.089 10.7342C115.089 10.7414 115.092 10.7484 115.095 10.7545C115.099 10.7606 115.105 10.7656 115.111 10.7691C115.117 10.7726 115.124 10.7745 115.132 10.7745H118.074C118.081 10.7745 118.088 10.7726 118.094 10.7691C118.101 10.7656 118.106 10.7606 118.11 10.7545C118.114 10.7484 118.116 10.7414 118.117 10.7342C118.117 10.727 118.116 10.7197 118.113 10.7131L116.642 7.25665C116.638 7.24911 116.633 7.24274 116.626 7.23827C116.619 7.2338 116.611 7.23143 116.603 7.23143C116.594 7.23143 116.586 7.2338 116.579 7.23827C116.572 7.24274 116.567 7.24911 116.563 7.25665L115.092 10.7131Z" fill="#9197C2"/>
<path d="M106.481 11.5394V14.3574C106.481 14.4033 106.458 14.4262 106.412 14.4262H104.97C104.925 14.4262 104.902 14.4033 104.902 14.3574V5.32193C104.902 5.27794 104.924 5.25595 104.968 5.25595C106.835 5.24404 108.014 5.24266 108.505 5.25183C109.995 5.27932 111.385 5.89653 111.808 7.39489C112.375 9.41149 111.209 10.9868 109.193 11.3621C108.376 11.5133 107.416 11.4253 106.556 11.4597C106.506 11.4625 106.481 11.489 106.481 11.5394ZM106.486 6.75843V9.9531C106.486 9.9633 106.49 9.97309 106.498 9.98031C106.505 9.98753 106.515 9.99159 106.525 9.99159H108.542C109.014 9.99159 109.467 9.82388 109.801 9.52535C110.135 9.22682 110.323 8.82193 110.323 8.39975V8.31178C110.323 7.88959 110.135 7.48471 109.801 7.18618C109.467 6.88765 109.014 6.71994 108.542 6.71994H106.525C106.515 6.71994 106.505 6.724 106.498 6.73122C106.49 6.73843 106.486 6.74822 106.486 6.75843Z" fill="#9197C2"/>
<path d="M124.865 9.26869L127.379 5.2651C127.383 5.25917 127.388 5.25431 127.394 5.25095C127.401 5.24758 127.407 5.24583 127.415 5.24585H129.122C129.129 5.24583 129.137 5.2479 129.143 5.25183C129.15 5.25576 129.155 5.26141 129.159 5.26818C129.162 5.27495 129.164 5.28258 129.164 5.29028C129.164 5.29797 129.161 5.30543 129.157 5.31187L125.614 10.7499C125.609 10.7569 125.607 10.765 125.607 10.7733V14.3835C125.607 14.3948 125.602 14.4057 125.594 14.4137C125.587 14.4217 125.576 14.4262 125.565 14.4262H124.053C124.042 14.4262 124.031 14.4217 124.023 14.4137C124.015 14.4057 124.011 14.3948 124.011 14.3835V10.7802C124.011 10.7719 124.009 10.7638 124.004 10.7568L120.482 5.31187C120.478 5.30543 120.476 5.29797 120.475 5.29028C120.475 5.28258 120.477 5.27495 120.481 5.26818C120.484 5.26141 120.489 5.25576 120.496 5.25183C120.503 5.2479 120.51 5.24583 120.518 5.24585H122.279C122.286 5.24598 122.293 5.24794 122.299 5.25155C122.306 5.25516 122.311 5.26029 122.315 5.26648L124.795 9.26731C124.798 9.27335 124.803 9.27835 124.81 9.28186C124.816 9.28538 124.822 9.28729 124.83 9.28743C124.837 9.28756 124.843 9.28592 124.85 9.28265C124.856 9.27938 124.861 9.27458 124.865 9.26869Z" fill="#9197C2"/>
<path d="M10.1035 0H10.3891C15.8453 0.198361 19.9977 4.34983 20.1476 9.81489V10.0564C19.9351 15.4774 15.8841 19.6439 10.4429 19.8361H10.0708C4.62694 19.6165 0.456076 15.5083 0.311493 10.0432V9.67207C0.538065 4.25197 4.68689 0.180729 10.1035 0ZM13.6484 10.5422C12.9616 13.8994 8.41519 14.4636 7.05135 11.3066C6.46332 9.94448 6.77188 8.39021 7.85449 7.38254C9.91303 5.46506 13.1406 6.62965 13.6528 9.31413C13.6546 9.32285 13.6594 9.33067 13.6663 9.33628C13.6732 9.3419 13.6818 9.34498 13.6907 9.34499H17.1272C17.1346 9.34504 17.1419 9.34351 17.1487 9.34049C17.1555 9.33746 17.1616 9.33302 17.1666 9.32746C17.1716 9.32189 17.1754 9.31531 17.1777 9.30816C17.18 9.301 17.1808 9.29343 17.1801 9.28592C16.8433 5.97639 14.3105 3.36596 11.008 2.98334C6.58586 2.47113 2.86814 6.22588 3.29219 10.6066C3.72418 15.0754 8.25738 17.9794 12.5076 16.5063C15.0933 15.6097 16.9191 13.2928 17.173 10.5422C17.1766 10.5081 17.1613 10.4911 17.1272 10.4911H13.711C13.6763 10.4911 13.6554 10.5081 13.6484 10.5422Z" fill="#9197C2"/>
</g>
<defs>
<clipPath id="clip0_110_206">
<rect width="128.852" height="20" fill="white" transform="translate(0.311493)"/>
</clipPath>
</defs>
</svg>
