<svg width="20" height="20" viewBox="0 0 20 20" fill="none" xmlns="http://www.w3.org/2000/svg">
<path d="M15.7972 4.42108C17.6795 7.22771 18.6091 10.3935 18.2616 14.0381C18.2601 14.0535 18.2522 14.0677 18.2397 14.077C16.8143 15.1384 15.4332 15.7826 14.0716 16.2098C14.061 16.2131 14.0496 16.2129 14.0391 16.2093C14.0286 16.2057 14.0195 16.1989 14.013 16.1897C13.6984 15.7458 13.4126 15.2779 13.1622 14.7864C13.1478 14.7575 13.161 14.7226 13.1905 14.7112C13.6445 14.5378 14.0762 14.3299 14.4914 14.0837C14.5241 14.0643 14.5262 14.0167 14.4959 13.9939C14.4078 13.9276 14.3205 13.8579 14.237 13.7881C14.2214 13.7752 14.2003 13.7727 14.1826 13.7814C11.487 15.0438 8.53408 15.0438 5.80659 13.7814C5.78888 13.7733 5.76784 13.7761 5.75263 13.7888C5.6693 13.8585 5.5818 13.9276 5.4945 13.9939C5.4643 14.0167 5.4668 14.0643 5.49971 14.0837C5.91492 14.3252 6.34659 14.5378 6.79992 14.7121C6.82929 14.7235 6.84325 14.7575 6.82867 14.7864C6.58367 15.2785 6.29784 15.7465 5.97742 16.1904C5.96346 16.2083 5.94055 16.2166 5.91888 16.2098C4.56367 15.7826 3.18263 15.1384 1.75722 14.077C1.74534 14.0677 1.7368 14.0529 1.73555 14.0374C1.44514 10.8849 2.03701 7.69295 4.19763 4.42045C4.20284 4.41179 4.21076 4.40503 4.21992 4.40101C5.28305 3.9062 6.422 3.54216 7.61242 3.33426C7.63409 3.33088 7.65575 3.34103 7.667 3.36046C7.81408 3.62456 7.98221 3.96324 8.09596 4.24002C9.35075 4.04564 10.6251 4.04564 11.9062 4.24002C12.0199 3.96916 12.1822 3.62456 12.3287 3.36046C12.3339 3.35082 12.342 3.3431 12.3518 3.33839C12.3616 3.33369 12.3726 3.33224 12.3832 3.33426C13.5743 3.5428 14.7132 3.90683 15.7755 4.40101C15.7849 4.40503 15.7926 4.41179 15.7972 4.42108ZM8.73387 10.4151C8.747 9.48311 8.077 8.71195 7.23596 8.71195C6.40179 8.71195 5.73825 9.47635 5.73825 10.4151C5.73825 11.3536 6.41492 12.118 7.23596 12.118C8.07033 12.118 8.73387 11.3536 8.73387 10.4151ZM14.2718 10.4151C14.2849 9.48311 13.6149 8.71195 12.7741 8.71195C11.9397 8.71195 11.2762 9.47635 11.2762 10.4151C11.2762 11.3536 11.9528 12.118 12.7741 12.118C13.6149 12.118 14.2718 11.3536 14.2718 10.4151Z" fill="#9197C2"/>
</svg>
