<svg width="33" height="20" viewBox="0 0 33 20" fill="none" xmlns="http://www.w3.org/2000/svg">
<g clip-path="url(#clip0_111_247)">
<path d="M21.0181 17.8675H12.2804V2.28271H21.0182L21.0181 17.8675Z" fill="#1C2147"/>
<path d="M12.8344 10.0751C12.8344 6.91378 14.3258 4.09762 16.6483 2.28276C14.8903 0.906983 12.7159 0.160302 10.4772 0.163585C4.96227 0.163585 0.491821 4.60107 0.491821 10.0751C0.491821 15.5492 4.96227 19.9867 10.4772 19.9867C12.716 19.99 14.8904 19.2433 16.6484 17.8675C14.3261 16.053 12.8344 13.2367 12.8344 10.0751Z" fill="#9197C2"/>
<path d="M32.8062 10.0754C32.8062 15.5495 28.3357 19.9869 22.8208 19.9869C20.5818 19.9902 18.4071 19.2435 16.6487 17.8678C18.9719 16.0529 20.4633 13.2369 20.4633 10.0754C20.4633 6.91386 18.9719 4.09786 16.6487 2.283C18.4071 0.907269 20.5817 0.160604 22.8207 0.163829C28.3355 0.163829 32.8062 4.60132 32.8062 10.0754Z" fill="#9197C2"/>
</g>
<defs>
<clipPath id="clip0_111_247">
<rect width="32.3103" height="19.8361" fill="white" transform="translate(0.491821 0.163818)"/>
</clipPath>
</defs>
</svg>
