<svg width="20" height="20" viewBox="0 0 20 20" fill="none" xmlns="http://www.w3.org/2000/svg">
<path d="M10 7.33333C8.52724 7.33333 7.33333 8.52724 7.33333 10C7.33333 11.4728 8.52724 12.6667 10 12.6667C11.4728 12.6667 12.6667 11.4728 12.6667 10C12.6667 8.52724 11.4728 7.33333 10 7.33333Z" fill="#9197C2"/>
<path fill-rule="evenodd" clip-rule="evenodd" d="M6.8 2C4.14903 2 2 4.14903 2 6.8V13.2C2 15.851 4.14903 18 6.8 18H13.2C15.851 18 18 15.851 18 13.2V6.8C18 4.14903 15.851 2 13.2 2H6.8ZM6.26667 10C6.26667 7.93814 7.93814 6.26667 10 6.26667C12.0619 6.26667 13.7333 7.93814 13.7333 10C13.7333 12.0619 12.0619 13.7333 10 13.7333C7.93814 13.7333 6.26667 12.0619 6.26667 10ZM13.7333 6.26667H14.8V5.2H13.7333V6.26667Z" fill="#9197C2"/>
</svg>
