<svg width="48" height="20" viewBox="0 0 48 20" fill="none" xmlns="http://www.w3.org/2000/svg">
<g clip-path="url(#clip0_111_258)">
<path d="M3.86474 7.90215C3.86474 7.38802 4.28659 7.19028 4.98528 7.19028C5.98718 7.19028 7.25273 7.49348 8.25463 8.03398V4.93601C7.16045 4.50098 6.07946 4.3296 4.98528 4.3296C2.30916 4.3296 0.52948 5.72698 0.52948 8.06034C0.52948 11.6988 5.53896 11.1188 5.53896 12.6875C5.53896 13.2939 5.01165 13.4917 4.27341 13.4917C3.17923 13.4917 1.78185 13.0435 0.674491 12.437V15.5746C1.9005 16.1019 3.13968 16.326 4.27341 16.326C7.01544 16.326 8.90059 14.9682 8.90059 12.6084C8.88741 8.67994 3.86474 9.37863 3.86474 7.90215ZM12.7763 1.69303L9.55973 2.37854L9.54655 12.938C9.54655 14.8891 11.0098 16.326 12.9609 16.326C14.0419 16.326 14.8329 16.1282 15.2679 15.891V13.2148C14.8461 13.3862 12.7632 13.9926 12.7632 12.0416V7.36165H15.2679V4.55371H12.7632L12.7763 1.69303ZM19.3678 5.52924L19.1568 4.55371H16.3093V16.0887H19.6051V8.27127C20.3828 7.25619 21.7011 7.44075 22.1098 7.58576V4.55371C21.688 4.39551 20.1456 4.10549 19.3678 5.52924ZM22.914 4.55371H26.2228V16.0887H22.914V4.55371ZM22.914 3.55181L26.2228 2.83994V0.163818L22.914 0.862509V3.55181ZM33.1043 4.3296C31.8124 4.3296 30.9819 4.93601 30.5205 5.35786L30.3491 4.54052H27.4489V19.9117L30.7446 19.213L30.7578 15.4823C31.2323 15.825 31.931 16.3128 33.0911 16.3128C35.4508 16.3128 37.5996 14.4145 37.5996 10.2355C37.5865 6.41249 35.4113 4.3296 33.1043 4.3296ZM32.3133 13.4126C31.5355 13.4126 31.0741 13.1357 30.7578 12.793L30.7446 7.90215C31.0873 7.51985 31.5619 7.25619 32.3133 7.25619C33.513 7.25619 34.3435 8.60084 34.3435 10.3278C34.3435 12.0943 33.5261 13.4126 32.3133 13.4126ZM47.9877 10.3673C47.9877 6.99253 46.3531 4.3296 43.2287 4.3296C40.0912 4.3296 38.1929 6.99253 38.1929 10.341C38.1929 14.309 40.434 16.3128 43.6506 16.3128C45.2193 16.3128 46.4058 15.9569 47.3022 15.4559V12.8194C46.4058 13.2676 45.3775 13.5444 44.0724 13.5444C42.7937 13.5444 41.66 13.0962 41.515 11.5406H47.9614C47.9614 11.3692 47.9877 10.6837 47.9877 10.3673ZM41.4754 9.11497C41.4754 7.62531 42.385 7.00572 43.2155 7.00572C44.0197 7.00572 44.8766 7.62531 44.8766 9.11497H41.4754Z" fill="#9197C2"/>
</g>
<defs>
<clipPath id="clip0_111_258">
<rect width="47.4583" height="19.8361" fill="white" transform="translate(0.52948 0.163818)"/>
</clipPath>
</defs>
</svg>
