<svg width="20" height="20" viewBox="0 0 20 20" fill="none" xmlns="http://www.w3.org/2000/svg">
<path d="M18.2592 4.97148C17.7201 5.20177 17.1533 5.36213 16.5729 5.4486C16.8442 5.40243 17.2435 4.91761 17.4025 4.72137C17.644 4.42537 17.828 4.08746 17.9452 3.72481C17.9452 3.69787 17.9724 3.65939 17.9452 3.64016C17.9315 3.63275 17.9162 3.62886 17.9006 3.62886C17.8851 3.62886 17.8697 3.63275 17.8561 3.64016C17.2258 3.97892 16.555 4.23747 15.8596 4.40971C15.8353 4.41705 15.8095 4.41771 15.785 4.41161C15.7604 4.40551 15.7379 4.39288 15.72 4.37508C15.6659 4.3111 15.6076 4.25069 15.5456 4.19423C15.2619 3.94199 14.9401 3.73554 14.5919 3.58244C14.1219 3.39104 13.6142 3.30815 13.1072 3.34003C12.6152 3.37087 12.1348 3.50184 11.696 3.72481C11.2639 3.95987 10.8842 4.27922 10.5796 4.66366C10.2592 5.05934 10.0278 5.51854 9.90116 6.01037C9.7967 6.4782 9.78485 6.96172 9.86627 7.43404C9.86627 7.51484 9.86627 7.52638 9.79649 7.51484C7.03243 7.11083 4.76459 6.13735 2.91155 4.04802C2.83014 3.95567 2.7875 3.95567 2.72159 4.04802C1.91525 5.26391 2.30679 7.18778 3.31472 8.13817C3.4504 8.26515 3.58996 8.38828 3.73728 8.50371C3.27515 8.47115 2.8243 8.34685 2.41146 8.13817C2.33393 8.08815 2.29128 8.11509 2.28741 8.20743C2.27642 8.33546 2.27642 8.46418 2.28741 8.59221C2.3683 9.20577 2.61191 9.787 2.99335 10.2765C3.37478 10.7659 3.88034 11.1461 4.45833 11.378C4.59923 11.4379 4.74605 11.483 4.8964 11.5127C4.46858 11.5962 4.0298 11.6093 3.59772 11.5511C3.50468 11.5319 3.46979 11.5819 3.50468 11.6704C4.07455 13.2095 5.3112 13.6789 6.21834 13.9406C6.34239 13.9598 6.46644 13.9598 6.606 13.9906C6.606 13.9906 6.606 13.9906 6.58274 14.0137C6.31525 14.4985 5.23366 14.8256 4.73745 14.9949C3.83174 15.3178 2.86608 15.4412 1.90749 15.3566C1.75631 15.3335 1.72142 15.3373 1.68265 15.3566C1.64388 15.3758 1.68265 15.4181 1.72529 15.4566C1.91912 15.5836 2.11296 15.6952 2.31454 15.8029C2.91467 16.1278 3.54912 16.3859 4.20635 16.5724C7.61005 17.5036 11.4402 16.8187 13.9949 14.2984C16.003 12.3207 16.7086 9.59262 16.7086 6.86072C16.7086 6.75683 16.8365 6.69527 16.9102 6.6414C17.4182 6.2485 17.8661 5.7845 18.2398 5.26391C18.3046 5.1863 18.3378 5.0875 18.3329 4.98687C18.3329 4.92915 18.3329 4.9407 18.2592 4.97148Z" fill="#9197C2"/>
</svg>
