<svg width="62" height="20" viewBox="0 0 62 20" fill="none" xmlns="http://www.w3.org/2000/svg">
<g clip-path="url(#clip0_111_253)">
<path d="M39.9082 0.187988C35.5718 0.187988 31.6967 2.4356 31.6967 6.58822C31.6967 11.3505 38.5694 11.6794 38.5694 14.0718C38.5694 15.0791 37.415 15.9809 35.4433 15.9809C32.6451 15.9809 30.5536 14.7209 30.5536 14.7209L29.6588 18.9114C29.6588 18.9114 32.068 19.9757 35.2667 19.9757C40.0077 19.9757 43.7383 17.6177 43.7383 13.3941C43.7383 8.36193 36.837 8.04275 36.837 5.82223C36.837 5.033 37.7846 4.1684 39.7507 4.1684C41.969 4.1684 43.7789 5.08478 43.7789 5.08478L44.6547 1.03755C44.6547 1.03755 42.6854 0.187988 39.9082 0.187988ZM0.235031 0.493469L0.130005 1.10437C0.130005 1.10437 1.95433 1.43821 3.59739 2.10426C5.71295 2.86793 5.86371 3.31254 6.21999 4.69341L10.1025 19.6607H15.3073L23.3254 0.493469H18.1327L12.9805 13.5253L10.8782 2.47888C10.6854 1.21465 9.70872 0.493469 8.51326 0.493469H0.235031ZM25.4135 0.493469L21.34 19.6606H26.2917L30.3509 0.493408H25.4135V0.493469ZM53.0308 0.493469C51.8367 0.493469 51.2041 1.13273 50.7399 2.24981L43.4853 19.6606H48.678L49.6827 16.7588H56.0089L56.6199 19.6606H61.2016L57.2045 0.493469H53.0308ZM53.7061 5.67184L55.2453 12.8643H51.1216L53.7061 5.67184Z" fill="#9197C2"/>
</g>
<defs>
<clipPath id="clip0_111_253">
<rect width="61.0716" height="19.8361" fill="white" transform="translate(0.130005 0.163818)"/>
</clipPath>
</defs>
</svg>
