<svg width="20" height="20" viewBox="0 0 20 20" fill="none" xmlns="http://www.w3.org/2000/svg">
<path d="M17.986 5.97228C17.7951 5.26264 17.2303 4.7028 16.5118 4.51094C15.2126 4.16663 9.99999 4.16663 9.99999 4.16663C9.99999 4.16663 4.79 4.16663 3.48816 4.51094C2.77229 4.70018 2.20754 5.26001 2.01399 5.97228C1.66666 7.26016 1.66666 9.94894 1.66666 9.94894C1.66666 9.94894 1.66666 12.6377 2.01399 13.9256C2.20489 14.6352 2.76964 15.1951 3.48816 15.3869C4.79 15.7313 9.99999 15.7313 9.99999 15.7313C9.99999 15.7313 15.2126 15.7313 16.5118 15.3869C17.2277 15.1977 17.7924 14.6379 17.986 13.9256C18.3333 12.6377 18.3333 9.94894 18.3333 9.94894C18.3333 9.94894 18.3333 7.26016 17.986 5.97228Z" fill="#9197C2"/>
<path d="M8.33491 12.4274L12.6646 9.94894L8.33491 7.47043V12.4274Z" fill="#1C2147"/>
</svg>
