<svg width="58" height="58" viewBox="0 0 58 58" fill="none" xmlns="http://www.w3.org/2000/svg">
<path d="M48.8404 19.8404C48.8404 8.88283 39.9575 0 29 0C18.0425 0 9.15965 8.88283 9.15965 19.8404C6.32689 20.1931 3.64844 22.0448 3.64844 26.3436V36.7047C3.64844 41.5545 7.04334 43.3181 10.2619 43.3181H13.4584C14.0671 43.3181 14.5606 42.8246 14.5606 42.2159V20.8765C14.5606 20.2678 14.0671 19.7742 13.4584 19.7742H11.3641C11.3641 10.0343 19.26 2.13835 29 2.13835C38.74 2.13835 46.6359 10.0343 46.6359 19.7742H44.5416C43.9329 19.7742 43.4394 20.2678 43.4394 20.8765V42.1828C43.4394 42.7915 43.9329 43.2851 44.5416 43.2851H46.6359C46.3273 50.8575 42.6899 52.6321 35.4261 52.9517V52.2132C35.4261 50.9957 34.4392 50.0087 33.2216 50.0087H26.2885C25.0709 50.0087 24.084 50.9957 24.084 52.2132V55.7955C24.084 57.0131 25.0709 58 26.2885 58H33.2436C34.4612 58 35.4481 57.0131 35.4481 55.7955V55.1562C42.4364 54.8366 48.4766 53.3926 48.8404 43.2189C51.6731 42.8662 54.3516 41.0144 54.3516 36.7157V26.3546C54.3516 22.0338 51.6842 20.1931 48.8404 19.8404ZM12.3562 21.9016V41.0806H10.2068C8.57546 41.0806 5.79781 40.5074 5.79781 36.6716V26.3105C5.79781 22.5078 8.54239 21.9016 10.2068 21.9016H12.3562ZM33.2436 54.1311V55.8065H26.2885V52.2243H33.2436V54.1311ZM52.1471 36.7047C52.1471 40.5074 49.4025 41.1136 47.7381 41.1136H45.6439V21.9787H47.7932C49.4246 21.9787 52.2022 22.5519 52.2022 26.3877L52.1471 36.7047Z" fill="#9CFF4F"/>
</svg>
