<svg width="54" height="54" viewBox="0 0 54 54" fill="none" xmlns="http://www.w3.org/2000/svg">
<g clip-path="url(#clip0_4016_271)">
<path d="M49.7401 6.70589C46.9002 3.68899 42.9767 1.92587 38.8351 1.80548C34.6936 1.6851 30.6743 3.21734 27.664 6.06419L26.9809 6.70949C21.0647 0.434652 11.1819 0.143928 4.90702 6.06014C-1.36782 11.9764 -1.65854 21.8592 4.25767 28.134L5.79577 29.7639C5.14632 31.2676 5.35387 33.0041 6.33939 34.3124C7.32492 35.6206 8.93677 36.2993 10.5613 36.09C10.2862 37.5215 10.7161 38.998 11.7165 40.0582C12.717 41.1184 14.1661 41.633 15.6112 41.4414C15.3361 42.8727 15.7659 44.3489 16.7662 45.409C17.7665 46.469 19.2153 46.9836 20.6602 46.7919C20.3022 48.7358 21.2339 50.6896 22.9698 51.635C24.7056 52.5804 26.8524 52.3033 28.2913 50.9481C33.4276 46.0989 33.2665 46.341 33.7516 45.5238C35.2539 46.263 37.0409 46.1164 38.4026 45.1422C39.7644 44.1681 40.4802 42.5241 40.2658 40.8636C41.697 41.1318 43.1702 40.6986 44.2284 39.6983C45.2866 38.698 45.8019 37.2515 45.6145 35.8074C47.5698 36.1666 49.5331 35.2208 50.4709 33.4678C51.4087 31.7149 51.106 29.5568 49.7221 28.1295C55.4209 22.128 55.4288 12.7169 49.7401 6.70589ZM7.97917 33.48C6.92766 32.3627 6.97838 30.6053 8.09257 29.5506L12.7726 25.1316C13.8917 24.0979 15.6343 24.1579 16.6798 25.266C17.7253 26.3741 17.6838 28.1173 16.5868 29.1744L11.9068 33.5934C10.7903 34.6452 9.03307 34.5945 7.97917 33.48ZM13.0291 38.8314C11.9766 37.7145 12.0273 35.9563 13.1425 34.902L17.8225 30.483C18.9386 29.43 20.6971 29.4812 21.7501 30.5973C22.8031 31.7134 22.7519 33.4719 21.6358 34.5249L16.9558 38.9448C15.838 39.9943 14.0818 39.9416 13.0291 38.8269V38.8314ZM18.0781 44.1819C17.0269 43.0647 17.078 41.3076 18.1924 40.2534L22.8724 35.8344C23.9956 34.8483 25.6978 34.9276 26.7245 36.0139C27.7512 37.1002 27.7345 38.8041 26.6866 39.87L22.0066 44.289C20.8909 45.3429 19.1321 45.2929 18.0781 44.1774V44.1819ZM27.0556 49.6467C26.3336 50.328 25.3029 50.5724 24.3518 50.2878C23.4008 50.0032 22.6738 49.2328 22.4447 48.2669C22.2157 47.3009 22.5194 46.2861 23.2414 45.6048L27.9214 41.1849C29.0405 40.1512 30.7831 40.2112 31.8286 41.3193C32.8741 42.4274 32.8326 44.1706 31.7356 45.2277L27.0556 49.6467ZM48.3433 33.3414C47.8083 33.8487 47.0933 34.122 46.3564 34.1007C45.6194 34.0794 44.9213 33.7654 44.4166 33.228L32.4232 20.52C32.0819 20.1584 31.5122 20.1419 31.1506 20.4831C30.789 20.8243 30.7724 21.3941 31.1137 21.7557L43.1098 34.4628C43.7913 35.1846 44.0359 36.2152 43.7515 37.1664C43.4671 38.1175 42.6969 38.8447 41.731 39.0739C40.7651 39.3032 39.7503 38.9997 39.0688 38.2779L27.0736 25.569C26.8528 25.3351 26.5241 25.2367 26.2111 25.3109C25.8982 25.3851 25.6486 25.6206 25.5564 25.9287C25.4642 26.2369 25.5433 26.5708 25.7641 26.8047L37.7557 39.51C38.7026 40.5125 38.7699 42.0582 37.9136 43.1392C37.0574 44.2202 35.5374 44.5087 34.3447 43.8165C34.5314 42.5308 34.1588 41.2267 33.321 40.2338C32.4832 39.2408 31.2604 38.654 29.9617 38.6217C28.9717 38.5956 29.3317 38.97 29.3569 37.98C29.3927 36.7659 28.9445 35.5874 28.1109 34.704C27.2773 33.8207 26.1268 33.3049 24.9127 33.2703C23.9227 33.2388 24.2782 33.6303 24.3079 32.6286C24.3432 31.4145 23.8947 30.2361 23.061 29.3528C22.2274 28.4695 21.0769 27.9537 19.8628 27.9189C18.8665 27.891 19.2283 28.287 19.258 27.2772C19.3065 25.4283 18.2392 23.7314 16.5517 22.9745C14.8642 22.2176 12.8871 22.5491 11.5387 23.8149C5.10367 29.889 7.32397 27.7956 6.84427 28.2483L5.56807 26.8983C0.334564 21.3469 0.592246 12.604 6.14362 7.37054C11.695 2.13704 20.4379 2.39472 25.6714 7.94609L18.3004 14.9067C17.6014 15.5769 17.19 16.4923 17.1529 17.46C17.0629 21.1563 22.561 23.4837 25.9207 20.304L32.6383 13.9644C32.8118 13.8004 33.0434 13.712 33.282 13.7187C33.5207 13.7255 33.7469 13.8268 33.9109 14.0004C35.6767 15.8715 46.7629 27.6201 48.4567 29.4138C48.9627 29.9495 49.2351 30.6644 49.2138 31.4011C49.1925 32.1377 48.8794 32.8357 48.3433 33.3414ZM48.4972 26.8344L35.2195 12.7647C34.7279 12.244 34.0496 11.9398 33.3338 11.9193C32.618 11.8987 31.9233 12.1633 31.4026 12.6549L24.6841 18.9963C23.9706 19.6698 23.0182 20.0314 22.0375 20.0012C21.0567 19.9709 20.1284 19.5514 19.4578 18.8352C19.1201 18.4772 18.9388 17.9996 18.9538 17.5077C18.9688 17.0159 19.179 16.5502 19.5379 16.2135L28.8979 7.37279C34.3187 2.24107 42.8353 2.34268 48.1321 7.60227C53.4289 12.8619 53.5905 21.3776 48.4972 26.8344Z" fill="#9CFF4F"/>
</g>
<defs>
<clipPath id="clip0_4016_271">
<rect width="54" height="54" fill="white"/>
</clipPath>
</defs>
</svg>
