<svg width="62" height="62" viewBox="0 0 62 62" fill="none" xmlns="http://www.w3.org/2000/svg">
<path d="M9.80134 31.0753C11.189 24.1368 11.8829 20.6676 14.1755 18.4332C14.5992 18.0202 15.0576 17.6444 15.5457 17.3099C18.1863 15.5 21.7243 15.5 28.8001 15.5H33.1994C40.2752 15.5 43.8131 15.5 46.4537 17.3099C46.9418 17.6444 47.4002 18.0202 47.824 18.4332C50.1166 20.6676 50.8104 24.1368 52.1981 31.0752C54.1904 41.0366 55.1865 46.0173 52.8934 49.5466C52.4782 50.1856 51.9936 50.7768 51.4484 51.3092C48.4373 54.25 43.358 54.25 33.1994 54.25H28.8001C18.6415 54.25 13.5622 54.25 10.5511 51.3092C10.0059 50.7768 9.52126 50.1856 9.10606 49.5466C6.81293 46.0173 7.80907 41.0366 9.80134 31.0753Z" stroke="#9CFF4F" stroke-width="1.5"/>
<path d="M23.25 15.5V12.9167C23.25 8.63648 26.7198 5.16669 31 5.16669C35.2802 5.16669 38.75 8.63648 38.75 12.9167V15.5" stroke="#9CFF4F" stroke-width="1.5" stroke-linecap="round"/>
<path d="M23.6914 38.75C24.7553 41.7601 27.626 43.9167 31.0004 43.9167C34.3748 43.9167 37.2455 41.7601 38.3094 38.75" stroke="#9CFF4F" stroke-width="1.5" stroke-linecap="round"/>
</svg>
