<svg width="53" height="53" viewBox="0 0 53 53" fill="none" xmlns="http://www.w3.org/2000/svg">
<path d="M44.6301 18.13C44.6301 8.11707 36.513 0 26.5001 0C16.4872 0 8.37009 8.11707 8.37009 18.13C5.78153 18.4523 3.33398 20.1444 3.33398 24.0726V33.5405C3.33398 37.9723 6.43623 39.5838 9.37731 39.5838H12.2983C12.8545 39.5838 13.3055 39.1328 13.3055 38.5766V19.0768C13.3055 18.5205 12.8545 18.0696 12.2983 18.0696H10.3845C10.3845 9.16924 17.5998 1.95401 26.5001 1.95401C35.4004 1.95401 42.6156 9.16924 42.6156 18.0696H40.7019C40.1457 18.0696 39.6947 18.5205 39.6947 19.0768V38.5464C39.6947 39.1026 40.1457 39.5536 40.7019 39.5536H42.6156C42.3336 46.4732 39.0098 48.0948 32.3722 48.3869V47.7121C32.3722 46.5995 31.4703 45.6976 30.3577 45.6976H24.0223C22.9097 45.6976 22.0079 46.5995 22.0079 47.7121V50.9856C22.0079 52.0982 22.9097 53 24.0223 53H30.3779C31.4905 53 32.3923 52.0982 32.3923 50.9856V50.4014C38.7781 50.1093 44.2977 48.7898 44.6301 39.4932C47.2186 39.1708 49.6662 37.4787 49.6662 33.5506V24.0827C49.6662 20.1344 47.2287 18.4523 44.6301 18.13ZM11.291 20.0135V37.5392H9.32695C7.83627 37.5392 5.29807 37.0154 5.29807 33.5103V24.0424C5.29807 20.5675 7.80605 20.0135 9.32695 20.0135H11.291ZM30.3779 49.4647V50.9956H24.0223V47.7222H30.3779V49.4647ZM47.6517 33.5405C47.6517 37.0154 45.1438 37.5694 43.6228 37.5694H41.7091V20.084H43.6732C45.1639 20.084 47.7021 20.6078 47.7021 24.1129L47.6517 33.5405Z" fill="#9CFF4F"/>
</svg>
