<svg width="25" height="25" viewBox="0 0 25 25" fill="none" xmlns="http://www.w3.org/2000/svg">
<g clip-path="url(#clip0_4016_240)">
<path d="M20.3125 18.75C17.7281 18.75 15.625 16.6469 15.625 14.0625C15.625 11.4781 17.7281 9.37502 20.3125 9.37502H22.9167V7.29169C22.9167 6.14273 21.9823 5.20835 20.8333 5.20835H19.7917V3.12502C19.7917 1.97606 18.8573 1.04169 17.7083 1.04169H3.125C1.58021 1.04169 0.303125 2.17085 0.053125 3.64481C0.0302083 3.73023 0 3.81356 0 3.90627V19.7917C0 21.5146 1.40208 22.9167 3.125 22.9167H20.8333C21.9823 22.9167 22.9167 21.9823 22.9167 20.8334V18.75H20.3125ZM2.08333 4.16669C2.08333 3.59273 2.55 3.12502 3.125 3.12502H17.7083V5.20835H3.125C2.55 5.20835 2.08333 4.74065 2.08333 4.16669Z" fill="#9CFF4F"/>
<path d="M24.2187 10.9375H20.3125C18.5896 10.9375 17.1875 12.3396 17.1875 14.0625C17.1875 15.7854 18.5896 17.1875 20.3125 17.1875H24.2187C24.65 17.1875 25 16.8375 25 16.4062V11.7188C25 11.2875 24.65 10.9375 24.2187 10.9375ZM20.3125 15.1042C19.7375 15.1042 19.2708 14.6375 19.2708 14.0625C19.2708 13.4875 19.7375 13.0208 20.3125 13.0208C20.8875 13.0208 21.3542 13.4875 21.3542 14.0625C21.3542 14.6375 20.8875 15.1042 20.3125 15.1042Z" fill="#9CFF4F"/>
</g>
<defs>
<clipPath id="clip0_4016_240">
<rect width="25" height="25" fill="white"/>
</clipPath>
</defs>
</svg>
